# xmcd
#
# Track frame offsets:
# 150
# 18094
# 32878
# 43646
# 56526
# 73314
# 83723
# 96739
# 107960
# 123189
# 137930
# 150566
# 168079
# 177094
#
# Disc length: 2526 seconds
#
# Revision: 0
# Processed by: cddbd v1.5.2PL0 Copyright (c) Steve Scherf et al.
# Submitted via: Axialis_AX_CDPlayer 2.6
#
DISCID=ba09dc0e
DTITLE=2nd Generation - Train Back Home
DYEAR=1900
DGENRE=
TTITLE0=Annabelle
TTITLE1=Things Change
TTITLE2=Darling Think Of What You've Done
TTITLE3=Train Back Home
TTITLE4=Mists Of Time
TTITLE5=Matterhorn
TTITLE6=Childhood Memories
TTITLE7=When I Get Home
TTITLE8=Don't Call For Me
TTITLE9=Fox On The Run
TTITLE10=Kentucky Mandolin
TTITLE11=Road Of Memories
TTITLE12=Walking In Jerusalem
TTITLE13=Footloose And Fancy Free
EXTD=www.2ndgenerationbluegrassband.net - Recorded at LBH Studios, PO Box 17
EXTD=3, \nIaeger, WV  24844
EXTT0=Written by Gillian Welch
EXTT1=Written by Danny and Gary Clevenger
EXTT2=Written by Carter Stanley
EXTT3=Written by Barry Clevenger
EXTT4=Written by Barry and Danny Clevenger
EXTT5=Written by Mel Tillis
EXTT6=Written by Barry Clevenger
EXTT7=Traditional
EXTT8=Written by Raymond Church
EXTT9=Written by Tony Hazzard
EXTT10=Written by Bill Monroe
EXTT11=Written by Barry and Danny Clevenger
EXTT12=Traditional
EXTT13=Written by Danny and Gary Clevenger
PLAYORDER=
